<?xml version="1.0" encoding="UTF-8" ?>
<!DOCTYPE svg PUBLIC "-//W3C//DTD SVG 1.1//EN" "http://www.w3.org/Graphics/SVG/1.1/DTD/svg11.dtd">
<svg xmlns="http://www.w3.org/2000/svg" width="47" height="29" viewBox="0 0 47 29" version="1.1">
  <path fill="#606060" d="M20.55 1.19C25.02 2.42 28.82 5.17 32.88 7.29 36.47 9.35 40.35 10.97 43.61 13.55 43.57 14.61 43.74 16.05 42.7 16.7 38.94 19.53 34.51 21.25 30.49 23.65 27.28 25.35 24.2 27.8 20.43 27.97 20.05 25.47 20 22.93 19.57 20.44 14.74 20.09 9.88 20.81 5.07 20.12 3.71 17.09 3.07 12.95 5.46 10.25 10.02 8.83 14.89 10.02 19.57 9.55 20.06 6.78 20.1 3.96 20.55 1.19Z"/>
</svg>
