<?xml version="1.0" encoding="utf-8"?>
<!-- Generator: Adobe Illustrator 19.2.0, SVG Export Plug-In . SVG Version: 6.00 Build 0)  -->
<svg version="1.1" id="Calque_1" xmlns="http://www.w3.org/2000/svg" xmlns:xlink="http://www.w3.org/1999/xlink" x="0px" y="0px"
	 viewBox="0 0 40 40" style="enable-background:new 0 0 40 40;" xml:space="preserve">
<style type="text/css">
	.st0{fill:#606060;}
</style>
<g>
	<g>
		<path class="st0" d="M20,0C9,0,0,9,0,20C0,31,9,40,20,40s20-9,20-20C40,9,31,0,20,0z M20,37.8c-9.8,0-17.8-8-17.8-17.8
			S10.2,2.2,20,2.2s17.8,8,17.8,17.8S29.8,37.8,20,37.8z M25.5,16.8c-0.4,1.5-1.5,2.8-3,3.8l-0.3,2.2c-0.1,0.7-0.5,1.2-1.2,1.5
			c-0.2,0.1-0.4,0.1-0.6,0.1c-0.5,0-0.9-0.2-1.2-0.5l-1.4-1.4c-0.7,0.1-1.4,0.2-2.2,0.2c0,0,0,0-0.1,0c0,0.1,0,0.2,0,0.2
			c0,1.9,1.2,3.5,3.1,4.6l0.4,2.8c0,0.2,0.1,0.3,0.3,0.4c0.2,0.1,0.4,0,0.5-0.1l1.9-1.9c0.8,0.2,1.7,0.3,2.6,0.3
			c4.8,0,8.8-2.7,8.8-6.1C33.1,19.7,29.8,17.2,25.5,16.8z M24.3,24c-0.6,0-1.2-0.5-1.2-1.2c0-0.6,0.5-1.2,1.2-1.2
			c0.6,0,1.2,0.5,1.2,1.2C25.5,23.4,25,24,24.3,24z M27.7,24c-0.6,0-1.2-0.5-1.2-1.2c0-0.6,0.5-1.2,1.2-1.2c0.6,0,1.2,0.5,1.2,1.2
			C28.8,23.4,28.3,24,27.7,24z M18.3,21l1.9,1.9c0.1,0.1,0.2,0.1,0.3,0.1c0.1,0,0.1,0,0.2,0c0.2-0.1,0.3-0.2,0.3-0.4l0.4-2.8
			c1.9-1.1,3.1-2.8,3.1-4.6c0-3.4-3.9-6.1-8.8-6.1c-4.8,0-8.8,2.7-8.8,6.1c0,3.4,3.9,6.1,8.8,6.1C16.6,21.2,17.4,21.1,18.3,21z
			 M19,14c0.6,0,1.2,0.5,1.2,1.2c0,0.6-0.5,1.2-1.2,1.2c-0.6,0-1.2-0.5-1.2-1.2C17.8,14.5,18.4,14,19,14z M12.3,16.3
			c-0.6,0-1.2-0.5-1.2-1.2c0-0.6,0.5-1.2,1.2-1.2c0.6,0,1.2,0.5,1.2,1.2C13.5,15.8,13,16.3,12.3,16.3z M14.5,15.1
			c0-0.6,0.5-1.2,1.2-1.2c0.6,0,1.2,0.5,1.2,1.2c0,0.6-0.5,1.2-1.2,1.2C15,16.3,14.5,15.8,14.5,15.1z"/>
	</g>
</g>
</svg>
